# xmcd
#
# Track frame offsets: 
#        150
#        17292
#        32525
#        51842
#        67905
#        85495
#        99832
#        117345
#        134580
#        153605
#
# Disc length: 2293 seconds
#
# Revision: 4
# Processed by: cddbd v1.5.2PL0 Copyright (c) Steve Scherf et al.
# Submitted via: ExactAudioCopy v0.95b4
#
DISCID=7808f30a
DTITLE=Amaury Gutierrez - Amaury Gutierrez
DYEAR=1999
DGENRE=Latin
TTITLE0=Ella Prefiere
TTITLE1=Perdoname Todo
TTITLE2=Yo Se Que Es Mentira
TTITLE3=Amor de Una Noche
TTITLE4=Encuentro
TTITLE5=La Soledad de Esa Mujer
TTITLE6=Debajo de Tu Piel
TTITLE7=Fascinación
TTITLE8=Se Me Escapa el Alma
TTITLE9=Diferencias
EXTD=
EXTT0=
EXTT1=
EXTT2=
EXTT3=
EXTT4=
EXTT5=
EXTT6=
EXTT7=
EXTT8=
EXTT9=
PLAYORDER=
